Coordinates
version=1
nRows=14
nColumns=24
inDegrees=yes

Units are S.I. units (second, meters, Newtons, ...)
Angles are in degrees.

endheader
time	pelvis_tilt	pelvis_list	pelvis_rotation	pelvis_tx	pelvis_ty	pelvis_tz	hip_flexion_r	hip_adduction_r	hip_rotation_r	knee_angle_r	ankle_angle_r	subtalar_angle_r	mtp_angle_r	hip_flexion_l	hip_adduction_l	hip_rotation_l	knee_angle_l	ankle_angle_l	subtalar_angle_l	mtp_angle_l	lumbar_extension	lumbar_bending	lumbar_rotation
      0.62000000	     -1.44017763	      8.87424641	      2.03137370	     -0.81462961	      0.96729364	      0.30265502	     29.61845383	    -11.33928403	     -0.32424245	     -0.51960575	      1.59346526	     -5.66237901	      1.06377950	    -21.39515065	     10.86602253	     13.04128648	      1.56884349	     10.81842305	    -12.29959184	      0.46006114	    -11.29678022	     -1.49867710	     -9.20987513
      0.62416667	     -1.50492750	      8.78070122	      2.09836213	     -0.80876402	      0.96662395	      0.30324548	     29.75042973	    -11.24062348	     -0.02972762	     -1.23827869	      1.30211633	     -6.07963749	      5.95343935	    -21.43768413	     10.74023063	     12.79640335	      1.05297931	     11.04133574	    -11.86005254	      1.35371143	    -11.19779340	     -1.34478582	     -9.20347185
      0.62833333	     -1.48630916	      8.65687186	      2.12919015	     -0.80283726	      0.96606648	      0.30384526	     29.79834326	    -11.09828132	      0.24203510	     -2.00197884	      1.15077417	     -6.40397604	      5.96282561	    -21.62778731	     10.58262034	     12.76202655	      0.66996591	     11.03475438	    -11.97372502	      1.35792320	    -11.17320397	     -1.12385099	     -9.22881059
      0.63250000	     -1.56261184	      8.55591505	      2.17854841	     -0.79690083	      0.96543811	      0.30449912	     29.90965170	    -10.96949199	      0.65248474	     -2.69834777	      0.79736578	     -7.01476339	      5.98642409	    -21.67492281	     10.45010825	     12.71522800	      0.19558383	     11.05715152	    -11.92672102	      1.38240972	    -11.04895862	     -0.93067100	     -9.23693445
      0.63666667	     -1.60434470	      8.43653030	      2.23038221	     -0.79090645	      0.96489073	      0.30513644	     29.99430893	    -10.82709070	      0.92412932	     -3.43725093	      0.41789004	     -7.47943237	      6.01887638	    -21.74206465	     10.29720994	     12.59603874	     -0.31196097	     11.11011492	    -11.78616788	      1.42844161	    -10.96216498	     -0.73758401	     -9.21676915
      0.64083333	     -1.65301794	      8.31310829	      2.27229076	     -0.78486931	      0.96434814	      0.30576932	     30.09771932	    -10.67636224	      1.16500080	     -4.20917606	      0.07895116	     -7.86526612	      6.04277830	    -21.78227814	     10.15036952	     12.45807934	     -0.86529073	     11.14602083	    -11.72361194	      1.47315637	    -10.85628058	     -0.51643798	     -9.19227356
      0.64500000	     -1.71030383	      8.20281084	      2.32959416	     -0.77880835	      0.96384378	      0.30642711	     30.20493018	    -10.53991133	      1.36922656	     -4.97426257	     -0.41634886	     -8.31730036	      6.07959512	    -21.79765098	     10.00751407	     12.33185622	     -1.44487400	     11.18972356	    -11.51297638	      1.55720422	    -10.74906448	     -0.34206992	     -9.17306790
      0.64916667	     -1.76798648	      8.07899539	      2.37797616	     -0.77270406	      0.96335795	      0.30709387	     30.31333615	    -10.38578917	      1.54335042	     -5.74547823	     -0.89947427	     -8.72602706	      6.12196735	    -21.79266554	      9.85826035	     12.15034409	     -2.06506901	     11.21482049	    -11.34038917	      1.66841619	    -10.63129549	     -0.13609902	     -9.14809248
      0.65333333	     -1.83295212	      7.94692379	      2.42184546	     -0.76656873	      0.96289066	      0.30775706	     30.43361543	    -10.22387000	      1.66811723	     -6.52485166	     -1.39310870	     -9.03120774	      6.14595766	    -21.76323860	      9.70726127	     11.99371904	     -2.72003645	     11.17234015	    -11.29722939	      1.74968206	    -10.50098599	      0.09239119	     -9.11861163
      0.65750000	     -1.89777619	      7.82032397	      2.47186093	     -0.76041059	      0.96244631	      0.30846351	     30.56051217	    -10.06329932	      1.78211604	     -7.32012184	     -1.95754675	     -9.46150026	      6.18907841	    -21.72605856	      9.55298930	     11.81727081	     -3.38216500	     11.15798738	    -11.08949211	      1.90608532	    -10.37931222	      0.28322463	     -9.10493263
      0.66166667	     -1.97246227	      7.68100211	      2.51374994	     -0.75421265	      0.96202695	      0.30916198	     30.69277810	     -9.89179187	      1.84614796	     -8.10138275	     -2.51781308	     -9.72834096	      6.21543355	    -21.65814613	      9.39618328	     11.63673125	     -4.08245350	     11.05017256	    -11.02916411	      2.02283566	    -10.23916996	      0.51578152	     -9.06928980
      0.66583333	     -2.04621916	      7.55131738	      2.55673949	     -0.74798790	      0.96161456	      0.30989677	     30.84028143	     -9.72439865	      1.90521663	     -8.91984099	     -3.09931148	    -10.15272819	      6.26815255	    -21.57564297	      9.24426279	     11.41827338	     -4.81381944	     11.00093813	    -10.81983373	      2.25819000	    -10.08206760	      0.71896888	     -9.05364970
      0.67000000	     -2.10636226	      7.40402532	      2.59729501	     -0.74176956	      0.96126209	      0.31066747	     30.96208311	     -9.53860390	      1.94228062	     -9.71476615	     -3.65776279	    -10.48164095	      6.36485042	    -21.46550114	      9.07523064	     11.13324318	     -5.62270216	     10.90721333	    -10.60776252	      2.69701584	     -9.97406208	      0.93754898	     -9.03334077
      0.67416667	     -2.19724978	      7.25372722	      2.62870293	     -0.73547251	      0.96088291	      0.31142269	     31.14387517	     -9.35123585	      1.91131042	    -10.57112966	     -4.19218726	    -10.72356078	      6.42682111	    -21.35042564	      8.91073983	     10.96142795	     -6.37044275	     10.70899778	    -10.57324026	      3.01982935	     -9.77793565	      1.17304601	     -8.99850362
